<mxfile host="app.diagrams.net" modified="2021-08-26T06:02:46.379Z" agent="5.0 (Macintosh; Intel Mac OS X 10_15_7) AppleWebKit/537.36 (KHTML, like Gecko) Chrome/86.0.4240.193 Safari/537.36" etag="zZwQtiGccB7Ka8pIJDbO" version="14.9.9" type="github">
  <diagram id="dOwV3J5otb3N1OqleyJp" name="Page-1">
    <mxGraphModel dx="946" dy="536" grid="1" gridSize="10" guides="1" tooltips="1" connect="1" arrows="1" fold="1" page="1" pageScale="1" pageWidth="827" pageHeight="1169" math="0" shadow="0">
      <root>
        <mxCell id="0" />
        <mxCell id="1" parent="0" />
        <mxCell id="2-dvFjHv57iJhWb7BtFr-1" value="3" style="rounded=0;whiteSpace=wrap;html=1;fillColor=#dae8fc;strokeColor=#6c8ebf;" vertex="1" parent="1">
          <mxGeometry x="260" y="180" width="60" height="160" as="geometry" />
        </mxCell>
        <mxCell id="2-dvFjHv57iJhWb7BtFr-2" value="1&lt;br&gt;3" style="rounded=0;whiteSpace=wrap;html=1;fillColor=#dae8fc;strokeColor=#6c8ebf;" vertex="1" parent="1">
          <mxGeometry x="320" y="180" width="60" height="160" as="geometry" />
        </mxCell>
        <mxCell id="2-dvFjHv57iJhWb7BtFr-3" value="2&lt;br&gt;3" style="rounded=0;whiteSpace=wrap;html=1;fillColor=#dae8fc;strokeColor=#6c8ebf;" vertex="1" parent="1">
          <mxGeometry x="380" y="180" width="60" height="160" as="geometry" />
        </mxCell>
        <mxCell id="2-dvFjHv57iJhWb7BtFr-4" value="2&lt;br&gt;3" style="rounded=0;whiteSpace=wrap;html=1;fillColor=#dae8fc;strokeColor=#6c8ebf;" vertex="1" parent="1">
          <mxGeometry x="440" y="180" width="60" height="160" as="geometry" />
        </mxCell>
        <mxCell id="2-dvFjHv57iJhWb7BtFr-5" value="4" style="rounded=0;whiteSpace=wrap;html=1;fillColor=#dae8fc;strokeColor=#6c8ebf;" vertex="1" parent="1">
          <mxGeometry x="500" y="180" width="60" height="160" as="geometry" />
        </mxCell>
        <mxCell id="2-dvFjHv57iJhWb7BtFr-6" value="1&lt;br&gt;4" style="rounded=0;whiteSpace=wrap;html=1;fillColor=#dae8fc;strokeColor=#6c8ebf;" vertex="1" parent="1">
          <mxGeometry x="560" y="180" width="60" height="160" as="geometry" />
        </mxCell>
      </root>
    </mxGraphModel>
  </diagram>
</mxfile>
